<svg xmlns="http://www.w3.org/2000/svg" width="140" height="30.431" viewBox="0 0 140 30.431">
  <g id="Athlon_logo" data-name="Athlon logo" transform="translate(99.47 -366.81)">
    <g id="Group_591" data-name="Group 591" transform="translate(-99.47 366.809)">
      <path id="Path_2150" data-name="Path 2150" d="M127,189.831c1.75,3.628,3.434,7.467,3.434,7.467h10.733c-1.676-2.854-4.317-8.124-6.9-13.467a73.386,73.386,0,0,0-7.264,6" transform="translate(-99.595 -167.162)" fill="#1c437d"/>
      <path id="Path_2151" data-name="Path 2151" d="M87.463,150.805c-1.4,3.348-2.073,5.032-3.523,8.318a57.365,57.365,0,0,1,5.892-3.364L93.2,147.3l2.691,5.9a48.014,48.014,0,0,1,8.867-2.221c-2.641-5.577-4.667-10-4.667-10H89.731a6.648,6.648,0,0,1,.031,2.913,39.75,39.75,0,0,1-2.3,6.946" transform="translate(-73.281 -140.97)" fill="#1c437d"/>
      <path id="Path_2152" data-name="Path 2152" d="M97.437,165.761s-21.28-.926-40.907,20.51h7.261c6.179-6.483,19.394-18.566,33.647-20.51" transform="translate(-56.53 -156.116)" fill="#fc0"/>
      <path id="Path_2153" data-name="Path 2153" d="M120.753,165.989s-19.592-1-37.613,20.436h7.222c5.724-6.611,17.889-18.861,30.392-20.436" transform="translate(-72.792 -156.255)" fill="#fc0"/>
      <path id="Path_2154" data-name="Path 2154" d="M173.931,171H158.613a44.07,44.07,0,0,0-6.133,3.212c.945-.082,7.152-.183,8.027-.167v11.414a29.553,29.553,0,0,1-.474,4.013h6.926a27.223,27.223,0,0,1-.482-4.083V174.029c.879,0,7.778.307,7.778.307Z" transform="translate(-115.166 -159.322)" fill="#1c437d"/>
      <path id="Path_2155" data-name="Path 2155" d="M217.889,174.982a24.618,24.618,0,0,1,.564-3.982H211.41a24.379,24.379,0,0,1,.568,3.986v10.469a25.029,25.029,0,0,1-.564,4.013h7.039a25.154,25.154,0,0,1-.564-4.013v-4.41H223.7v4.406a25.157,25.157,0,0,1-.564,4.013h7.039a25.026,25.026,0,0,1-.564-4.013V174.982a24.378,24.378,0,0,1,.572-3.982h-7.043a24.617,24.617,0,0,1,.56,3.982v3.228h-5.806Z" transform="translate(-151.179 -159.322)" fill="#1c437d"/>
      <path id="Path_2156" data-name="Path 2156" d="M273.228,185.778a14.78,14.78,0,0,0,3.387.366,17.841,17.841,0,0,0,4.667-.529l-.023,3.842H266.87a30.593,30.593,0,0,0,.439-3.974V175.013A31.262,31.262,0,0,0,266.87,171H273.8a24.893,24.893,0,0,0-.568,4.041Z" transform="translate(-185.071 -159.322)" fill="#1c437d"/>
      <path id="Path_2157" data-name="Path 2157" d="M315.829,186.238c-3.029,0-5.483-3.411-5.483-7.618S312.8,171,315.829,171s5.483,3.411,5.483,7.618-2.454,7.618-5.483,7.618m.21-17.434c-6.549,0-12.129,3.71-12.129,9.788s5.129,9.816,11.744,9.816c6.549,0,12.129-3.624,12.129-9.847s-4.966-9.761-11.745-9.761" transform="translate(-207.707 -157.977)" fill="#1c437d"/>
      <path id="Path_2158" data-name="Path 2158" d="M386.413,174.815A33.512,33.512,0,0,1,386.72,171H382.6a23.1,23.1,0,0,1,.455,3.815v7.521h-.1L373.152,171h-5.4a36.167,36.167,0,0,1,.389,4.686v10.247a20.793,20.793,0,0,1-.389,3.535h4.278a21.96,21.96,0,0,1-.389-3.535v-7.972h.1l9.812,11.507h4.838Z" transform="translate(-246.72 -159.322)" fill="#1c437d"/>
    </g>
  </g>
</svg>