<svg version="1.1" id="Laag_1" xmlns="http://www.w3.org/2000/svg" xmlns:xlink="http://www.w3.org/1999/xlink" x="0px" y="0px" viewBox="0 0 258.07 73.82" style="enable-background:new 0 0 258.07 73.82;" xml:space="preserve">
<style type="text/css">
	.st0{clip-path:url(#SVGID_2_);fill:#0F58A1;}
	.st1{clip-path:url(#SVGID_4_);fill:#FFFFFF;}
</style>
<g>
	<g>
		<defs>
			<rect id="SVGID_1_" x="0" y="0" width="258.07" height="73.82"/>
		</defs>
		<clipPath id="SVGID_2_">
			<use xlink:href="#SVGID_1_" style="overflow:visible;"/>
		</clipPath>
		<path class="st0" d="M88.27,31.28c-0.05-0.35-0.05-3.67,2.41-6.19c1.67-1.73,3.95-2.59,6.83-2.59h13.65    c2.93,0,5.25,0.86,6.87,2.59c2.46,2.52,2.41,5.84,2.41,6.23V49.9c0,1.15-0.93,2.12-2.13,2.12c-1.21,0-2.14-0.98-2.14-2.12V31.28    c0-0.08,0-2-1.25-3.25c-0.79-0.81-2.09-1.28-3.76-1.28H97.51c-1.67,0-2.97,0.46-3.76,1.28c-1.25,1.25-1.25,3.17-1.25,3.17    l0.05,18.7c0,1.15-0.97,2.12-2.14,2.12s-2.14-0.98-2.14-2.12V31.28z"/>
		<path class="st0" d="M130.75,23.84c0-1.14,0.97-2.13,2.13-2.13c1.16,0,2.14,1,2.14,2.13V49.9c0,1.15-0.98,2.12-2.14,2.12    c-1.16,0-2.13-0.98-2.13-2.12V23.84z"/>
		<path class="st0" d="M171.79,40.35c-2.32,2.19-5.9,1.98-6.04,1.98h-16.16l-0.05-11.77c0-0.78,0.23-2.42,1.16-3.46    c0.7-0.68,1.72-1.05,3.07-1.05h11.7c0,0,3.85-0.22,6.31,2.09c1.44,1.37,2.13,3.47,2.13,6.18C173.92,37,173.22,39.05,171.79,40.35     M149.64,46.61h15.92c0.23,0,5.43,0.34,9.1-3.08c2.32-2.17,3.53-5.26,3.53-9.17c0-3.99-1.21-7.15-3.53-9.37    c-3.81-3.54-9.24-3.24-9.28-3.24h-11.61c-3.25,0-5.15,1.35-6.22,2.5c-2.51,2.68-2.23,6.44-2.23,6.72v27.39    c0,1.18,0.98,2.15,2.14,2.15c1.16,0,2.13-0.97,2.13-2.15L149.64,46.61z"/>
		<path class="st0" d="M231.63,33.42c2.32-2.13,5.9-2,6.04-1.96h16.11v11.81c0,0.79-0.19,2.41-1.11,3.41    c-0.7,0.74-1.62,1.11-3.02,1.11H237.9c0,0-3.81,0.22-6.27-2.11c-1.44-1.4-2.23-3.43-2.14-6.22    C229.49,36.81,230.19,34.76,231.63,33.42 M253.73,27.22h-15.88c-0.23,0-5.39-0.35-9.1,3.07c-2.32,2.18-3.58,5.27-3.58,9.17    c0,3.98,1.21,7.15,3.58,9.37c3.81,3.57,9.19,3.23,9.28,3.2h11.61c3.2,0,5.15-1.32,6.13-2.47c2.55-2.68,2.32-6.44,2.27-6.72V15.44    c0-1.15-0.93-2.14-2.13-2.14c-1.16,0-2.14,0.99-2.14,2.14L253.73,27.22z"/>
		<path class="st0" d="M189.75,30.78c0-0.75,0.37-4.43,6.55-4.43l15.32-0.06c2.09,0,3.76,1.71,3.76,3.84c0,2.04-1.67,3.77-3.76,3.77    l-21.87-0.08V30.78z M216.54,47.79h-21.22c0,0-2.51,0.1-4.13-1.41c-0.97-0.95-1.44-2.4-1.44-4.28v-4h21.87    c4.46,0,8.03-3.58,8.03-7.96c0-4.48-3.58-8.02-8.03-8.02H196.3c-3.62,0-6.41,0.97-8.36,2.94c-2.41,2.41-2.46,5.39-2.46,5.73V42.1    c0,3.12,0.93,5.6,2.79,7.36c2.92,2.78,6.87,2.59,7.15,2.56l21.12,0.02c1.21,0,2.18-1,2.18-2.15    C218.72,48.71,217.75,47.79,216.54,47.79"/>
		<path class="st0" d="M35.04,13.64 M73.82,36.91C73.82,16.53,57.3,0,36.91,0C16.53,0,0,16.53,0,36.91s16.53,36.91,36.91,36.91    C57.3,73.82,73.82,57.3,73.82,36.91"/>
	</g>
	<g>
		<defs>
			<rect id="SVGID_3_" x="13.61" y="11.58" width="46.51" height="50.84"/>
		</defs>
		<clipPath id="SVGID_4_">
			<use xlink:href="#SVGID_3_" style="overflow:visible;"/>
		</clipPath>
		<path class="st1" d="M52.12,52.63c0,1.23,1,2.23,2.22,2.23c1.22,0,2.21-1,2.21-2.23c0-1.23-0.99-2.22-2.21-2.22    C53.11,50.41,52.12,51.4,52.12,52.63 M41.25,54.66c0,1.7,1.38,3.08,3.06,3.08c1.69,0,3.06-1.38,3.06-3.08    c0-1.7-1.37-3.08-3.06-3.08C42.62,51.58,41.25,52.95,41.25,54.66 M40.33,45.71c0,1.68,1.36,3.04,3.03,3.04    c1.67,0,3.02-1.36,3.02-3.04c0-1.68-1.36-3.04-3.02-3.04C41.68,42.67,40.33,44.03,40.33,45.71 M44.51,28.34    c0.8,0.01,1.45-0.65,1.45-1.46c0-0.8-0.65-1.45-1.45-1.45c-0.8,0-1.45,0.65-1.45,1.45C43.06,27.69,43.71,28.34,44.51,28.34     M40.21,29.2c0,0.78,0.62,1.4,1.4,1.4c0.77,0,1.4-0.63,1.39-1.4c0-0.77-0.62-1.4-1.39-1.4C40.83,27.79,40.21,28.43,40.21,29.2     M41.23,40.85c0-2.07-1.67-3.75-3.73-3.75c-2.06,0-3.73,1.68-3.73,3.75c0,2.07,1.67,3.75,3.73,3.75S41.23,42.93,41.23,40.85     M33.55,57.9c0,2.1,1.69,3.8,3.78,3.8c2.09,0,3.78-1.7,3.78-3.8c0-2.1-1.69-3.8-3.78-3.8C35.24,54.1,33.55,55.81,33.55,57.9     M23.75,57.94c0,2.48,2,4.49,4.47,4.49c2.47,0,4.47-2.01,4.47-4.49c0-2.48-2-4.49-4.47-4.49C25.75,53.45,23.75,55.46,23.75,57.94     M25.91,36.97c0.71,0,1.29-0.58,1.29-1.29s-0.58-1.3-1.29-1.3c-0.71,0-1.28,0.58-1.28,1.3S25.2,36.97,25.91,36.97 M16.97,54.64    c0,1.83,1.48,3.3,3.3,3.3c1.82,0,3.29-1.48,3.29-3.31c0-1.83-1.48-3.31-3.29-3.31C18.44,51.33,16.97,52.81,16.97,54.64     M16.29,46.38c-1.48,0-2.68,1.21-2.68,2.69c0,1.49,1.2,2.69,2.68,2.69c1.48,0,2.68-1.2,2.68-2.69    C18.97,47.59,17.77,46.38,16.29,46.38 M16.61,41.31c-1.16,0-2.1,0.95-2.1,2.12c0,1.16,0.94,2.11,2.1,2.11    c1.16,0,2.1-0.94,2.1-2.11C18.71,42.26,17.77,41.31,16.61,41.31 M21.09,39.46c0-1-0.81-1.81-1.81-1.81c-1,0-1.81,0.81-1.81,1.81    c0,1.01,0.81,1.82,1.81,1.82C20.28,41.29,21.09,40.47,21.09,39.46 M24.06,37.04c0.04-0.83-0.6-1.52-1.42-1.56    c-0.82-0.04-1.51,0.6-1.55,1.43c-0.04,0.82,0.6,1.52,1.42,1.56C23.33,38.5,24.03,37.86,24.06,37.04 M24.51,25.9    c0,1.79,1.44,3.24,3.22,3.24c1.78,0,3.23-1.46,3.23-3.25c0-1.79-1.44-3.24-3.23-3.24C25.96,22.66,24.51,24.11,24.51,25.9     M27.5,17.36c-1.22,0-2.21,1-2.21,2.22c0,1.23,1,2.22,2.22,2.22c1.22,0,2.21-0.99,2.21-2.22C29.72,18.35,28.72,17.36,27.5,17.36     M32.16,15.72c0-0.97-0.78-1.76-1.76-1.76c-0.97,0-1.76,0.79-1.75,1.76c0,0.97,0.78,1.76,1.75,1.77    C31.37,17.48,32.16,16.69,32.16,15.72 M35.05,13.72c0-0.72-0.58-1.29-1.29-1.29c-0.71,0-1.29,0.58-1.29,1.29    c0,0.72,0.58,1.29,1.29,1.29C34.47,15.01,35.05,14.43,35.05,13.72 M36.77,33.33c0-2.55-2.06-4.61-4.59-4.61s-4.59,2.07-4.59,4.61    c0,2.55,2.06,4.62,4.59,4.62C34.72,37.95,36.77,35.88,36.77,33.33 M38.87,13.1c0-0.84-0.67-1.51-1.51-1.51    c-0.83,0-1.5,0.68-1.5,1.51c0,0.84,0.67,1.51,1.5,1.51C38.19,14.6,38.87,13.93,38.87,13.1 M39.72,30.78c0-0.72-0.58-1.3-1.29-1.3    c-0.71,0-1.29,0.58-1.29,1.3c0,0.71,0.58,1.29,1.29,1.29C39.15,32.08,39.72,31.49,39.72,30.78 M43.35,14.41    c0-1.07-0.85-1.93-1.91-1.93c-1.06,0-1.92,0.86-1.92,1.93c0,1.06,0.86,1.92,1.92,1.92C42.5,16.33,43.35,15.47,43.35,14.41     M47.73,18.05c0-1.38-1.11-2.5-2.49-2.5c-1.37,0-2.48,1.12-2.48,2.5c0,1.38,1.12,2.5,2.49,2.5    C46.62,20.55,47.73,19.43,47.73,18.05 M48.13,23.13c0-1.02-0.83-1.85-1.85-1.85c-1.02,0-1.85,0.83-1.85,1.85    c0,1.03,0.83,1.86,1.85,1.86C47.3,24.99,48.13,24.15,48.13,23.13 M49.07,46.53c-1.67,0-3.03,1.36-3.03,3.04    c0,1.68,1.36,3.04,3.03,3.04c1.67,0,3.03-1.36,3.03-3.04C52.1,47.89,50.74,46.53,49.07,46.53 M52.32,42.18    c-1.23,0-2.21,1-2.21,2.22s0.99,2.23,2.21,2.23c1.22,0,2.21-1,2.21-2.23S53.54,42.18,52.32,42.18 M54.89,38.8    c-0.91,0-1.65,0.74-1.65,1.65c0,0.92,0.74,1.66,1.65,1.66c0.91,0,1.65-0.74,1.65-1.66C56.53,39.53,55.79,38.8,54.89,38.8     M58.73,36.92c0-0.91-0.74-1.65-1.65-1.65c-0.91,0-1.65,0.74-1.65,1.66c0,0.91,0.74,1.65,1.65,1.65    C57.99,38.58,58.73,37.83,58.73,36.92 M60.12,54.89c0-0.91-0.74-1.66-1.65-1.66s-1.65,0.74-1.65,1.66c0,0.91,0.74,1.66,1.65,1.66    S60.12,55.81,60.12,54.89"/>
	</g>
</g>
</svg>