<svg id="Layer_1" xmlns="http://www.w3.org/2000/svg" version="1.1" viewBox="0 0 436 138">
  <!-- Generator: Adobe Illustrator 29.5.0, SVG Export Plug-In . SVG Version: 2.1.0 Build 137)  -->
  <defs>
    <style>
      .st0 {
        fill: #fff;
      }
    </style>
  </defs>
  <g>
    <path class="st0" d="M72.9,86.4c-5.9,5.8-13.3,8.7-22,8.7s-16-2.9-22-8.7c-5.9-5.8-8.9-13-8.9-21.7s3-15.9,8.9-21.7c5.9-5.8,13.3-8.7,22-8.7s16,2.9,22,8.7c5.9,5.8,8.9,13,8.9,21.7s-3,15.9-8.9,21.7ZM68.4,64.8c0-5.2-1.7-9.7-5.1-13.4-3.4-3.7-7.5-5.6-12.4-5.6s-9.1,1.9-12.4,5.6c-3.4,3.7-5.1,8.2-5.1,13.4s1.7,9.7,5.1,13.4c3.4,3.7,7.5,5.5,12.4,5.5s9.1-1.8,12.4-5.5c3.4-3.7,5.1-8.1,5.1-13.4Z"/>
    <path class="st0" d="M131.4,70.1v24.4h-12.7v-24.8c0-3.6-.5-6.2-1.6-7.9-1.1-1.7-2.9-2.5-5.3-2.5s-4.6.9-6.5,2.7c-1.9,1.8-2.8,4.5-2.8,8v24.4h-12.6v-45.3h12.6v5.1c3.5-3.9,7.5-5.9,12-5.9s5.5.8,7.8,2.5c2.3,1.7,4.1,3.7,5.3,6.1,1.7-2.8,4.1-4.9,7-6.4,2.9-1.5,5.9-2.3,8.9-2.3,5.3,0,9.6,1.6,12.9,4.8,3.3,3.2,4.9,7.8,4.9,13.8v27.5h-12.7v-24.8c0-7-2.6-10.4-7.7-10.4s-4.7.9-6.6,2.7-2.8,4.5-2.8,8Z"/>
    <path class="st0" d="M183.4,69.3v25.3h-12.6v-45.3h12.6v5.1c3.8-3.9,8.1-5.8,12.9-5.8s8.8,1.7,12,5.1c3.2,3.4,4.8,7.9,4.8,13.5v27.5h-12.6v-25.6c0-7-2.6-10.4-7.7-10.4s-4.7.9-6.6,2.7c-1.9,1.8-2.8,4.5-2.8,8Z"/>
    <path class="st0" d="M223.7,43.5c-1.4-1.4-2.1-3.2-2.1-5.3s.7-3.8,2.1-5.3c1.4-1.4,3.2-2.1,5.3-2.1s3.8.7,5.3,2.1c1.4,1.4,2.1,3.2,2.1,5.3s-.7,3.8-2.1,5.3c-1.4,1.4-3.2,2.1-5.3,2.1s-3.8-.7-5.3-2.1ZM235.3,94.6h-12.6v-45.3h12.6v45.3Z"/>
  </g>
  <g>
    <path class="st0" d="M256.6,49.3l.4,3.7h.3c3.8-3.2,8.1-4.9,12.9-4.9s9.8,2,13.1,6.1c3.3,4.1,5,9.4,5,16.1s-2,13.7-6.1,18.4c-4,4.7-9.2,7-15.4,7s-6.4-.7-9.6-2.1h-.3v16h7.7v5.8h-21.7v-5.8h6.4v-54.5h-6.4v-5.8h13.7ZM257,88.2c2.6,1.2,5.5,1.7,8.9,1.7s8-1.5,10.5-4.5c2.5-3,3.8-7.7,3.8-13.9s-1.1-10.5-3.3-13.3c-2.2-2.8-5.2-4.2-8.9-4.2s-7.7,1.7-11,5v29.2Z"/>
    <path class="st0" d="M292,88.8h6.4V30.7h-6.4v-5.8h14v63.8h6.4v5.8h-20.4v-5.8Z"/>
    <path class="st0" d="M319.5,52.7c5.9-3,11.9-4.5,18-4.5s9.3,1.1,12.2,3.3c2.9,2.2,4.3,5.7,4.3,10.5v26.8h6.4v5.8h-13.3l-.4-5.2h-.3c-4.1,4.2-9.1,6.4-15.1,6.4s-7.9-1.2-10.5-3.5c-2.6-2.4-3.9-5.4-3.9-9s2.3-8.5,7-10.9c4.6-2.4,11.4-3.6,20.2-3.6h2.2v-6.8c0-2.9-.7-4.9-2.2-6.1-1.5-1.2-4-1.8-7.5-1.8s-7.7.6-10.5,1.9v6.3h-6.6v-9.4ZM343.3,73.7c-5.9,0-10.4.7-13.5,2-3.2,1.4-4.7,3.7-4.7,7.1s.8,4.3,2.3,5.4c1.5,1.1,3.5,1.7,5.9,1.7,5.1,0,9.5-1.9,13.1-5.7v-10.6h-3.1Z"/>
    <path class="st0" d="M366.5,88.8h6.4v-33.6h-6.4v-5.8h13.5l.4,6h.1c4.6-4.8,9.9-7.2,15.8-7.2s7.4,1.1,9.3,3.3c2,2.2,2.9,5.3,2.9,9.3v28h6.4v5.8h-19.1v-5.8h5.1v-27c0-3.1-.6-5.2-1.8-6.2-1.2-1-2.9-1.6-5-1.6-4.9,0-9.5,2.4-13.7,7.2v27.6h5.1v5.8h-19.1v-5.8Z"/>
  </g>
</svg>